<?xml version="1.0" encoding="UTF-8"?>
<svg version="1.1" xmlns="http://www.w3.org/2000/svg" width="4500" height="4500">
<path d="M0 0 C415.14 0 830.28 0 1258 0 C1258 195.03 1258 390.06 1258 591 C1037.56 591 817.12 591 590 591 C590 811.11 590 1031.22 590 1258 C395.3 1258 200.6 1258 0 1258 C0 842.86 0 427.72 0 0 Z " fill="#1A2C56" transform="translate(2037,1992)"/>
<path d="M0 0 C576.84 0 1153.68 0 1748 0 C1748 194.7 1748 389.4 1748 590 C1333.85 590 919.7 590 493 590 C491.88045459 578.80454594 491.88045459 578.80454594 491.7890625 573.98046875 C489.75682988 489.52991324 473.235139 405.50483723 419 281 C418.56510254 280.12085938 418.13020508 279.24171875 417.68212891 278.3359375 C399.3063007 241.4189362 375.34553465 206.62311282 349 175 C348.2869873 174.13834229 348.2869873 174.13834229 347.55957031 173.25927734 C341.15490384 165.52572101 334.49253756 158.07356836 327.62841797 150.74609375 C325.87938591 148.87066987 324.14409833 146.98312976 322.41015625 145.09375 C314.46084291 136.43473921 314.46084291 136.43473921 305.77734375 128.52734375 C303.79646652 126.82509541 302.00462892 125.00062804 300.1875 123.125 C296.36765605 119.25323584 292.26479954 115.86374347 288.0234375 112.46484375 C285.92790262 110.75646841 283.87954612 109.03786122 281.8515625 107.25390625 C260.89205766 88.81649951 237.30617706 72.70424715 213 59 C212.16130371 58.52530273 211.32260742 58.05060547 210.45849609 57.56152344 C187.50475613 44.65280598 163.88981323 33.62914143 139 25 C137.91525391 24.62246582 136.83050781 24.24493164 135.71289062 23.85595703 C91.46838347 8.63334457 46.58008495 2.2012476 0 1 C0 0.67 0 0.34 0 0 Z " fill="#1A2C56" transform="translate(1547,1250)"/>
<path d="M0 0 C194.7 0 389.4 0 590 0 C590 415.14 590 830.28 590 1258 C395.3 1258 200.6 1258 0 1258 C0 842.86 0 427.72 0 0 Z " fill="#1A2C56" transform="translate(1205,1992)"/>
<path d="M0 0 C94.44859615 0 183.57861042 20.69111226 268 63 C269.02319336 63.51030762 270.04638672 64.02061523 271.10058594 64.54638672 C291.86046493 74.95377729 311.92706481 86.74311993 331 100 C331.65838867 100.45407227 332.31677734 100.90814453 332.99511719 101.37597656 C365.40092507 123.76186627 395.17975893 149.15682231 423.0625 176.9375 C423.94309082 177.81341797 424.82368164 178.68933594 425.73095703 179.59179688 C430.69501465 184.56819109 435.42399852 189.66698657 440 195 C441.45445517 196.60768373 442.91220895 198.21239715 444.375 199.8125 C449.10576093 205.06180977 453.56997052 210.49623945 458 216 C458.92538408 217.13313697 459.85118393 218.26593449 460.77734375 219.3984375 C485.56497745 249.84945728 506.70876812 283.30415642 525 318 C525.72654785 319.37502686 525.72654785 319.37502686 526.46777344 320.77783203 C570.07267606 403.95338276 590 496.48984219 590 590 C395.3 590 200.6 590 0 590 C0 395.3 0 200.6 0 0 Z " fill="#366AB2" transform="translate(1205,1250)"/>
</svg>
